<svg width="18" height="19" viewBox="0 0 18 19" fill="none" xmlns="http://www.w3.org/2000/svg">
<path d="M17.954 7.667C17.882 7.345 17.682 7.046 17.452 6.922C17.382 6.883 16.93 6.834 16.448 6.813C15.639 6.777 15.55 6.761 15.296 6.612C14.891 6.375 14.78 6.119 14.778 5.425C14.776 4.098 14.224 2.866 13.132 1.755C12.356 0.961999 11.487 0.425999 10.498 0.125999C10.262 0.0539993 9.72999 0.0289992 7.95299 0.00799923C5.16599 -0.0250008 4.54799 0.0319994 3.59699 0.409999C1.84899 1.107 0.588986 2.576 0.131986 4.46C0.0449864 4.813 0.0289863 5.38 0.00798634 8.637C-0.0170137 12.717 0.0119865 13.317 0.265986 14.125C0.477986 14.793 0.690986 15.202 1.12699 15.782C1.96199 16.89 3.20999 17.689 4.46099 17.915C5.05599 18.022 12.392 18.05 13.144 17.947C14.45 17.769 15.475 17.245 16.437 16.263C17.131 15.553 17.566 14.784 17.851 13.764C17.968 13.34 17.978 13.134 18 10.647C18.017 8.769 18.002 7.889 17.954 7.667ZM5.00699 5.108C5.31999 4.792 5.40599 4.779 7.37099 4.779C9.13499 4.779 9.19299 4.783 9.45199 4.913C9.82699 5.102 9.98999 5.369 9.98999 5.793C9.98999 6.177 9.83699 6.446 9.49699 6.662C9.31299 6.777 9.20399 6.785 7.47599 6.795C6.40899 6.802 5.55999 6.782 5.43299 6.747C4.76399 6.563 4.51499 5.604 5.00699 5.108ZM12.713 13.145L12.116 13.243L9.00199 13.278C6.26599 13.311 5.49099 13.26 5.34999 13.198C5.06199 13.074 4.79599 12.726 4.74799 12.418C4.70599 12.126 4.85199 11.722 5.07799 11.518C5.36299 11.261 5.48699 11.252 8.98899 11.248C12.591 11.246 12.572 11.245 12.914 11.563C13.396 12.013 13.295 12.814 12.713 13.145Z" fill="white"/>
</svg>
